HIERARCHY
ROOT Hips
{
	OFFSET -3.958830 18.904000 13.208200
	CHANNELS 6 Xposition Yposition Zposition Zrotation Yrotation Xrotation 
	JOINT LHipJoint
	{
		OFFSET 0.000000 0.000000 0.000000
		CHANNELS 3 Zrotation Yrotation Xrotation
		JOINT LeftUpLeg
		{
			OFFSET 1.800000 -1.400000 0.085000
			CHANNELS 3 Zrotation Yrotation Xrotation
			JOINT LeftLeg
			{
				OFFSET 2.215000 -6.000000 0.000000
				CHANNELS 3 Zrotation Yrotation Xrotation
				JOINT LeftFoot
				{
					OFFSET 2.500000 -6.900000 0.000000
					CHANNELS 3 Zrotation Yrotation Xrotation
					JOINT LeftToeBase
					{
						OFFSET 0.200000 -0.500000 1.950000
						CHANNELS 3 Zrotation Yrotation Xrotation
						End Site
						{
							OFFSET 0.000000 0.000000 0.000000
						}
					}
				}
			}
		}
	}
	JOINT RHipJoint
	{
		OFFSET 0.000000 0.000000 0.000000
		CHANNELS 3 Zrotation Yrotation Xrotation
		JOINT RightUpLeg
		{
			OFFSET -1.800000 -1.400000 0.085000
			CHANNELS 3 Zrotation Yrotation Xrotation
			JOINT RightLeg
			{
				OFFSET -2.215000 -6.000000 0.000000
				CHANNELS 3 Zrotation Yrotation Xrotation
				JOINT RightFoot
				{
					OFFSET -2.500000 -6.900000 0.000000
					CHANNELS 3 Zrotation Yrotation Xrotation
					JOINT RightToeBase
					{
						OFFSET -0.200000 -0.500000 1.950000
						CHANNELS 3 Zrotation Yrotation Xrotation
						End Site
						{
							OFFSET 0.000000 0.000000 0.000000
						}
					}
				}
			}
		}
	}
	JOINT LowerBack
	{
		OFFSET 0.000000 0.000000 0.000000
		CHANNELS 3 Zrotation Yrotation Xrotation
		JOINT Spine
		{
			OFFSET -0.087000 1.940000 -0.288900
			CHANNELS 3 Zrotation Yrotation Xrotation
			JOINT Spine1
			{
				OFFSET 0.000000 1.950000 0.060000
				CHANNELS 3 Zrotation Yrotation Xrotation
				JOINT Neck
				{
					OFFSET 0.000000 0.000000 0.000000
					CHANNELS 3 Zrotation Yrotation Xrotation
					JOINT Neck1
					{
						OFFSET 0.000000 1.600000 0.340000
						CHANNELS 3 Zrotation Yrotation Xrotation
						JOINT Head
						{
							OFFSET 0.000000 1.667000 -0.240000
							CHANNELS 3 Zrotation Yrotation Xrotation
							End Site
							{
								OFFSET 0.000000 0.000000 0.000000
							}
						}
					}
				}
				JOINT LeftShoulder
				{
					OFFSET 0.000000 0.000000 0.000000
					CHANNELS 3 Zrotation Yrotation Xrotation
					JOINT LeftArm
					{
						OFFSET 2.700000 1.550000 -0.730000
						CHANNELS 3 Zrotation Yrotation Xrotation
						JOINT LeftForeArm
						{
							OFFSET 5.450000 0.000000 0.000000
							CHANNELS 3 Zrotation Yrotation Xrotation
							JOINT LeftHand
							{
								OFFSET 3.450000 0.000000 0.000000
								CHANNELS 3 Zrotation Yrotation Xrotation
								JOINT LeftHandIndex1
								{
									OFFSET 0.750000 0.000000 0.000000
									CHANNELS 3 Zrotation Yrotation Xrotation
									End Site
									{
										OFFSET 0.000000 0.000000 0.000000
									}
								}
							}
						}
					}
				}
				JOINT RightShoulder
				{
					OFFSET 0.000000 0.000000 0.000000
					CHANNELS 3 Zrotation Yrotation Xrotation
					JOINT RightArm
					{
						OFFSET -2.700000 1.550000 -0.730000
						CHANNELS 3 Zrotation Yrotation Xrotation
						JOINT RightForeArm
						{
							OFFSET -5.450000 0.000000 0.000000
							CHANNELS 3 Zrotation Yrotation Xrotation
							JOINT RightHand
							{
								OFFSET -3.450000 0.000000 0.000000
								CHANNELS 3 Zrotation Yrotation Xrotation
								JOINT RightHandIndex1
								{
									OFFSET -0.750000 0.000000 0.000000
									CHANNELS 3 Zrotation Yrotation Xrotation
									End Site
									{
										OFFSET 0.000000 0.000000 0.000000
									}
								}
							}
						}
					}
				}
			}
		}
	}
}
MOTION
Frames: 7
Frame Time: 0.016667
-0.285270 16.465000 -3.423230 -5.795956 -17.987032 1.201713 -15.872819 11.580428 5.725829 32.621001 -6.123177 -29.935429 -25.559919 27.023207 48.544555 0.832647 13.340235 0.087180 0.898560 0.498660 0.509810 18.133878 -8.465961 2.438150 -9.967076 3.407300 -41.586716 -15.191330 -2.348783 49.374412 -0.972899 -6.777473 2.163750 0.403500 0.345870 0.177540 -2.523554 -4.185457 -8.983500 0.003258 -3.153963 21.148110 -0.562345 -1.893689 0.343684 -1.787641 -8.898322 -6.346649 -20.487445 9.677606 28.506815 1.916230 2.432840 -19.010040 -24.668703 -4.613425 -3.367527 -38.576680 -21.650489 1.829760 1.103469 -18.826798 -1.781219 -3.711060 2.683933 0.866110 0.075190 -0.012330 0.469480 28.410015 8.848421 5.634449 40.727533 -2.863947 -8.496704 -4.785069 20.221691 -1.699170 1.747291 -1.366227 -0.344130 0.522940 -0.190270 -0.287060 
-0.383460 16.415530 -3.483190 -5.820148 -17.523275 -0.118555 -15.893242 11.605512 5.770198 33.950745 -5.907585 -29.240811 -25.362467 27.377399 49.046937 0.875822 13.389349 0.065942 0.886990 0.474230 0.544470 18.102586 -8.383811 2.558402 -9.683316 4.194804 -41.562390 -15.017395 -2.353398 51.989211 -1.096146 -7.117009 2.056342 0.359590 0.274730 0.153190 -2.430813 -4.255377 -9.188859 -1.760530 -2.490758 24.966429 0.444845 -1.361730 -0.500134 -1.655702 -8.873361 -7.714850 -20.967835 9.539820 30.269765 2.310710 2.564960 -21.121580 -25.711484 -7.707703 -2.398053 -31.834580 -20.110863 0.408777 2.872812 -18.463907 -1.871466 -3.620549 2.638671 0.940390 -0.003540 0.048140 0.446050 29.611131 12.144599 7.376942 38.101896 -3.790037 -8.446793 -9.179837 19.234078 -1.955554 1.789084 -1.349716 -0.345420 0.521460 -0.203860 -0.308080 
-0.481920 16.373660 -3.522040 -5.994006 -17.039382 -1.645740 -15.883349 11.654505 5.788403 35.349876 -5.631407 -28.128283 -25.033453 27.580118 49.445686 0.913682 13.408525 0.033718 0.866710 0.437630 0.555980 18.095994 -8.395861 2.588528 -9.293434 4.848173 -40.602147 -14.744907 -2.446412 54.250926 -1.208889 -7.421592 1.965980 0.296690 0.205580 0.163130 -2.422612 -4.223879 -9.303030 -2.934822 -2.008173 28.719126 1.057492 -0.978312 -1.568753 -1.386144 -8.872238 -9.040688 -21.635775 9.770261 32.215871 2.628790 2.857920 -23.166050 -26.131612 -9.805759 -1.441402 -26.250803 -17.918667 -0.766452 4.660705 -18.072763 -1.985985 -3.560808 2.624834 1.004070 -0.066720 0.103640 0.410700 29.862742 14.453918 8.712083 36.094728 -4.788456 -8.397900 -12.611074 17.914784 -2.006209 1.831404 -1.326927 -0.318210 0.486640 -0.191090 -0.326510 
-0.590700 16.334210 -3.524230 -6.210356 -16.391555 -3.592294 -15.834159 11.765833 5.721882 36.499149 -5.334981 -26.098029 -24.313417 27.498392 49.720871 0.939108 13.373871 0.017289 0.822580 0.372050 0.562920 18.106910 -8.534020 2.559738 -9.115102 5.289403 -38.845953 -14.269496 -2.719766 56.473386 -1.317183 -7.730878 1.860420 0.222220 0.141250 0.172330 -2.487221 -4.068654 -9.344469 -3.567650 -1.740861 32.077590 1.030913 -0.694006 -2.828637 -0.933356 -8.700287 -10.286296 -22.307461 10.147952 35.046386 2.762860 3.193930 -24.573050 -26.308087 -11.185472 -0.528188 -21.412828 -15.306878 -1.559339 6.101265 -17.145179 -2.006747 -3.520072 2.599797 1.066330 -0.127380 0.155410 0.362980 29.428054 15.916745 9.671097 34.756232 -5.894640 -8.362884 -15.853552 16.020785 -1.914380 1.899852 -1.288406 -0.301120 0.451150 -0.165400 -0.347510 
-0.703730 16.312430 -3.496710 -6.670497 -15.062258 -5.492562 -15.766975 11.900733 5.619724 37.556327 -5.130194 -24.225947 -22.622713 26.855349 50.256480 0.891158 13.277567 0.020883 0.777630 0.294790 0.588210 18.124227 -8.764879 2.487960 -8.882089 5.457612 -36.513405 -13.362223 -3.429265 58.631829 -1.422861 -8.056734 1.769502 0.156360 0.088220 0.166040 -2.582903 -3.808654 -9.359487 -3.749256 -1.755743 34.688812 0.329103 -0.525824 -3.944871 -0.243269 -7.655986 -11.216227 -21.108921 10.054378 39.113156 2.166840 3.833700 -25.508890 -26.493779 -12.399348 0.299574 -17.264971 -12.861895 -2.129501 7.816007 -16.075258 -2.070450 -3.502682 2.530760 1.146670 -0.167850 0.193740 0.316880 28.356782 16.592240 10.178861 34.355235 -6.789615 -8.394174 -18.478747 13.946975 -1.716443 1.942041 -1.233543 -0.319990 0.437820 -0.143440 -0.394040 
-0.840840 16.288190 -3.459330 -6.861754 -13.624747 -6.478811 -15.754495 11.972299 5.501146 38.320720 -4.724489 -23.362983 -20.569948 26.227636 50.949662 0.844852 13.175407 0.030470 0.765390 0.267340 0.615730 18.119929 -8.845066 2.511096 -8.938819 5.780764 -35.346935 -11.876368 -4.616856 61.344123 -1.538684 -8.515851 1.630492 0.133230 0.055480 0.159240 -2.585611 -3.672859 -9.389140 -4.358772 -1.367519 34.960353 0.147353 -0.200583 -3.985791 0.022840 -6.569725 -11.612466 -19.446955 9.601775 42.223058 2.316580 4.011080 -25.115580 -26.038638 -12.876411 0.802907 -15.115502 -11.744601 -2.204095 9.707830 -14.440554 -2.170835 -3.512970 2.493451 1.176050 -0.185380 0.211510 0.291840 27.385274 16.543280 10.265504 34.149035 -7.635946 -8.794354 -21.913527 12.868047 -1.848893 1.972211 -1.247497 -0.326100 0.423680 -0.143500 -0.419760 
-0.998570 16.270940 -3.407110 -7.272984 -12.391834 -7.018564 -15.771254 12.021315 5.355076 39.235037 -3.976544 -22.722767 -18.220388 25.516679 51.449290 0.789251 13.061496 0.074480 0.730330 0.239850 0.602080 18.108983 -8.831619 2.592038 -8.634650 6.374577 -34.580755 -10.262901 -5.973703 64.141620 -1.654910 -9.028438 1.512425 0.123420 0.094000 0.137010 -2.545553 -3.613729 -9.416541 -4.732373 -0.947163 33.739222 0.030285 0.208798 -3.184296 0.083495 -5.646091 -11.620140 -17.865649 9.152362 44.507143 2.498020 3.990110 -23.820900 -25.210827 -12.777754 1.089985 -14.174577 -11.242633 -2.118570 11.555261 -12.863022 -2.290631 -3.571609 2.412569 1.168590 -0.156040 0.196640 0.289440 26.350398 16.035952 10.015324 33.958267 -8.099717 -9.437970 -25.422864 12.657492 -2.252099 1.965148 -1.249177 -0.353720 0.470450 -0.128760 -0.420510 
